Coordinates
version=1
nRows=12
nColumns=34
inDegrees=yes

Units are S.I. units (second, meters, Newtons, ...)
If the header above contains a line with 'inDegrees', this indicates whether rotational values are in degrees (yes) or radians (no).

endheader
time	pelvis_tilt	pelvis_list	pelvis_rotation	pelvis_tx	pelvis_ty	pelvis_tz	hip_flexion_r	hip_adduction_r	hip_rotation_r	knee_angle_r	ankle_angle_r	subtalar_angle_r	mtp_angle_r	hip_flexion_l	hip_adduction_l	hip_rotation_l	knee_angle_l	ankle_angle_l	subtalar_angle_l	mtp_angle_l	lumbar_extension	lumbar_bending	lumbar_rotation	arm_flex_r	arm_add_r	arm_rot_r	elbow_flex_r	pro_sup_r	arm_flex_l	arm_add_l	arm_rot_l	elbow_flex_l	pro_sup_l
      2.11666670	     -6.14214680	      0.69850160	      6.40065753	      0.16167408	      0.87796378	     -0.22587447	     30.44309959	    -11.98379236	      4.02398407	     35.20576739	     -3.29246048	    -20.51253707	      0.00000000	     12.21484230	      5.77008169	      6.17723354	     19.90924710	      7.23991419	     -9.26067078	      0.00000000	     -7.21890556	     -1.66628608	     -2.18739476	     42.61488384	     15.31742504	     47.42694035	    127.32589685	    102.65998559	     60.43332233	     18.94254048	     69.76007707	    129.61067508	     77.62777743
      2.13333330	     -5.77382521	      0.57428003	      6.35994510	      0.15844865	      0.87440929	     -0.22836609	     31.95030298	    -11.74958723	      3.92692848	     33.14696285	     -4.90936232	    -20.36335693	      0.00000000	     13.17038408	      6.07179434	      6.71033949	     22.02847451	      7.38561735	    -10.59389338	      0.00000000	     -8.49102190	     -1.19727404	     -2.29181056	     43.08531499	     14.86500892	     45.08506083	    126.16058670	    102.43434907	     61.29736565	     18.93124323	     69.38619946	    129.19304001	     77.59460930
      2.15000000	     -5.41522401	      0.65708071	      6.56075811	      0.15797729	      0.87054263	     -0.23009391	     33.02904502	    -11.67480427	      3.96156855	     30.98682783	     -5.75132736	    -19.48069140	      0.00000000	     14.09528551	      6.66928857	      7.49969530	     24.36740214	      7.72784779	    -12.32745171	      0.00000000	     -9.52942977	     -0.99802277	     -2.42181424	     43.04379838	     14.46806870	     41.87337133	    125.39278284	    101.95135395	     61.48057431	     18.95594105	     69.33301857	    128.53953501	     77.56282362
      2.16666670	     -5.01702405	      0.75881795	      6.55924264	      0.15707928	      0.86446810	     -0.23256789	     34.05577758	    -11.61969696	      3.79679980	     29.07754420	     -6.95233674	    -18.99755975	      0.00000000	     15.29634851	      7.31193702	      8.00608253	     27.34187495	      8.40997640	    -13.48296510	      0.00000000	    -10.59263674	     -0.67718803	     -2.11177428	     43.46226586	     14.22498061	     40.39486201	    125.33032370	    101.69979472	     61.89680448	     19.20713678	     69.43374008	    128.43847147	     77.60019673
      2.18333330	     -4.50836962	      0.89042499	      6.35437291	      0.15637544	      0.86083734	     -0.23513293	     34.86576299	    -11.50682495	      3.52212656	     26.97941146	     -8.93780026	    -18.34012001	      0.00000000	     16.17618498	      8.00629040	      8.58938296	     30.09649906	      8.94073229	    -14.63330626	      0.00000000	    -11.51935359	     -0.23989488	     -1.40145199	     43.35094009	     13.51522082	     36.88751862	    124.39845137	    101.26105422	     61.49667488	     19.74068370	     69.57837072	    128.36185057	     77.65348799
      2.20000000	     -3.74168541	      1.17649097	      5.89109404	      0.15791153	      0.85507890	     -0.23678917	     35.10260514	    -11.29011708	      3.71030714	     24.72159293	     -9.64986021	    -17.14697816	      0.00000000	     16.88116194	      8.76979865	      8.91201410	     33.10372945	      8.69022706	    -16.40721057	      0.00000000	    -12.16487432	     -0.39411408	     -0.90937180	     42.80566161	     13.55776343	     35.34731040	    124.99309604	    100.92159006	     60.48787293	     19.90152850	     69.79808431	    128.10358400	     77.78558357
      2.21666670	     -3.13576844	      1.57466778	      5.29269563	      0.15668385	      0.85088619	     -0.23951248	     35.47256932	    -11.34284524	      3.58686115	     21.88950140	    -11.02803808	    -16.50635434	      0.00000000	     17.71484868	      9.67969019	      8.80023198	     35.86006650	      7.85014752	    -18.35618934	      0.00000000	    -12.78997998	     -0.44410805	     -0.29937480	     42.58644934	     13.39722094	     36.12501426	    126.15816037	    100.83714262	     59.77458403	     20.18102916	     70.11603692	    128.14521800	     78.00110962
      2.23333330	     -2.53530298	      2.08681099	      5.13538227	      0.15725540	      0.84806725	     -0.24229479	     35.58936016	    -11.63224390	      3.45404718	     18.92691738	    -11.19345967	    -14.82486248	      0.00000000	     18.43644524	     10.85235451	      9.15302663	     38.35358832	      7.71135728	    -20.11584522	      0.00000000	    -13.43425263	     -0.64754386	     -0.03760077	     42.03438420	     13.80934020	     39.86084246	    128.51246182	    101.10801801	     58.93615811	     20.53807223	     71.09756163	    128.63757626	     78.31350532
      2.25000000	     -1.71377832	      2.44085204	      4.98304501	      0.15809916	      0.84589530	     -0.24383531	     35.24663219	    -11.73238354	      3.87048618	     16.45575076	    -10.59978855	    -11.98333718	      0.00000000	     18.61258432	     11.75926721	      9.58077605	     40.18990325	      8.04856665	    -21.43995048	      0.00000000	    -14.40521613	     -0.56645287	      0.21441764	     41.55228347	     14.04536181	     43.89587184	    130.10566989	    101.53459510	     58.35959881	     20.45235929	     71.57628614	    128.81639011	     78.57647581
      2.26666670	     -0.93687525	      2.83070141	      4.70814966	      0.15579564	      0.84202732	     -0.24611930	     35.12186427	    -11.89500863	      4.18577396	     14.52151750	    -11.00703974	     -9.43137607	      0.00000000	     19.05910155	     12.65017019	      9.73678557	     42.00405901	      8.10622328	    -22.56093587	      0.00000000	    -15.56926858	     -0.42706357	      0.43018097	     41.24166007	     14.33006256	     48.01514808	    130.90198790	    102.05788472	     58.08553342	     20.33851736	     72.06876062	    129.09174749	     78.82207152
      2.28333330	     -0.09992182	      3.10433007	      4.35724726	      0.15971972	      0.83888427	     -0.24838350	     34.70555570	    -12.08110653	      4.35212462	     12.63300070	    -11.59126702	     -8.10985493	      0.00000000	     19.14191869	     13.41963910	     10.06210689	     43.34694507	      8.14031174	    -23.80189946	      0.00000000	    -16.65306528	     -0.16534475	      0.48967160	     41.12706311	     14.53828017	     52.00945036	    131.31234400	    102.61232889	     57.65988618	     20.02073419	     72.44885309	    129.01096690	     78.98595070
      2.30000000	      0.51612225	      3.34419187	      4.23057530	      0.15861874	      0.83513929	     -0.25048474	     34.74262549	    -12.32132537	      4.55035144	     11.07084578	    -12.46237885	     -7.12557978	      0.00000000	     19.60430321	     14.15787674	     10.27084333	     44.91110203	      7.84982816	    -25.49668556	      0.00000000	    -17.62057033	      0.23140440	      0.64327993	     41.32419140	     14.56850519	     55.78270119	    131.52481207	    103.15041868	     57.44169722	     19.70706114	     72.84128023	    129.04589110	     79.09264947
